<svg id="Слой_3" data-name="Слой 3" xmlns="http://www.w3.org/2000/svg" viewBox="0 0 23.14 47.84"><defs><style>.cls-1{fill:#f6f6f6;}.cls-2{fill:#1d1d1b;}</style></defs><path class="cls-1" d="M838.33,561.69c-4.62,0-8.67-1.24-10.57-3.24-1.34-1.41-1-6.54-.89-7.63V548c0-4.64,6-8.46,9-10.17-4.28-2.51-9-6.22-9-10.37v-2.78c-.09-1.09-.45-6.22.89-7.63,1.9-2,6-3.24,10.57-3.24s8.67,1.24,10.57,3.24c1.33,1.41,1,6.54.89,7.63v2.78c0,3.34-3,6.79-9,10.27,6,3.48,9,6.94,9,10.27v2.78c.09,1.09.44,6.22-.89,7.63C847,560.45,843,561.69,838.33,561.69Zm0-46.73c-4.33,0-8.07,1.11-9.76,2.89-.74.78-.79,4.44-.59,6.8v2.85c0,4.1,5.8,8,9.26,9.89l.87.48-.87.49C835,539.64,828,543.54,828,548v2.86c-.2,2.35-.15,6,.59,6.79,1.69,1.78,5.43,2.89,9.76,2.89s8.06-1.11,9.76-2.89c.74-.78.79-4.44.59-6.79V548c0-3-3.21-6.4-9.27-9.78l-.86-.49.86-.48c6.06-3.39,9.27-6.78,9.27-9.79v-2.85c.2-2.36.15-6-.59-6.8C846.39,516.07,842.65,515,838.33,515Z" transform="translate(-826.76 -513.85)"/><path class="cls-1" d="M848.76,529.72c0,2.51-6.36,8-10.43,8s-10.47-5.54-10.47-8c0-4.2,2-2,10.47-2S848.76,525.52,848.76,529.72Z" transform="translate(-826.76 -513.85)"/><path class="cls-1" d="M849.23,556.41c0,2.88-5.67,4.55-10.9,4.55s-10.9-1.67-10.9-4.55,0-2.06,10.9-2.06S849.23,553.54,849.23,556.41Z" transform="translate(-826.76 -513.85)"/><path class="cls-1" d="M838.33,532.45c0,12.09-3.7,21.9-8.26,21.9h16.51C842,554.35,838.33,544.54,838.33,532.45Z" transform="translate(-826.76 -513.85)"/><polygon class="cls-2" points="12.74 19.63 15.05 20.38 13.41 18.78 14.85 18.11 13.37 17.75 15.17 15.75 12.74 17.03 12.39 15.74 11.62 16.8 9.58 14.67 10.84 17.34 9.05 17.16 10.28 18.05 8.09 18.86 10.58 19.19 9.43 20.4 11.05 19.86 11.02 22.15 12.04 20.29 13.02 20.99 12.74 19.63"/></svg>