<svg id="Слой_3" data-name="Слой 3" xmlns="http://www.w3.org/2000/svg" viewBox="0 0 316.52 47.84"><defs><style>.cls-1{fill:#f6f6f6;}.cls-2{fill:#1d1d1b;}</style></defs>
<path class="cls-1" d="M870.51,553.76q-8.5,0-8.88-6.71h3.7q.06,3.78,5.16,3.78a5.67,5.67,0,0,0,3.52-.89,2.91,2.91,0,0,0,1.14-2.43,2.51,2.51,0,0,0-.22-1.12,2.06,2.06,0,0,0-.88-.81,9.46,9.46,0,0,0-1.84-.71c-.8-.23-1.82-.51-3.08-.84a30.88,30.88,0,0,1-3.18-.9,8,8,0,0,1-2.19-1.12,3.91,3.91,0,0,1-1.27-1.62,6.1,6.1,0,0,1-.41-2.39,5.27,5.27,0,0,1,.54-2.38,5.54,5.54,0,0,1,1.56-1.87,7.89,7.89,0,0,1,2.46-1.24,10.84,10.84,0,0,1,3.22-.46q8.11,0,8.32,5.82h-3.71c-.1-2-1.56-3-4.4-3a7.21,7.21,0,0,0-1.63.17,4.6,4.6,0,0,0-1.38.51,2.55,2.55,0,0,0-.94.87,2.26,2.26,0,0,0-.34,1.22,3.09,3.09,0,0,0,.13,1,1.37,1.37,0,0,0,.67.72,7,7,0,0,0,1.69.65c.76.22,1.81.49,3.16.82s2.33.61,3.26.93A8.31,8.31,0,0,1,877,543a4.34,4.34,0,0,1,1.39,1.71,6,6,0,0,1,.47,2.49,5.87,5.87,0,0,1-.58,2.57,6.14,6.14,0,0,1-1.66,2.08,8.46,8.46,0,0,1-2.63,1.41A10.78,10.78,0,0,1,870.51,553.76Z" transform="translate(-826.76 -513.85)"/>
<path class="cls-1" d="M896.31,551.13a10.16,10.16,0,0,1-7.27,2.63,9,9,0,0,1-2.84-.44,6.93,6.93,0,0,1-2.25-1.21,5.45,5.45,0,0,1-2-4.36q0-7.29,12.57-7.29h1.81a22,22,0,0,0-.12-2.48,3.65,3.65,0,0,0-.62-1.74,2.75,2.75,0,0,0-1.48-1,9.11,9.11,0,0,0-2.75-.32c-3.3,0-5,1.17-5.12,3.53h-3.66q.45-6.39,9-6.39a17.16,17.16,0,0,1,3.53.33,6.41,6.41,0,0,1,2.67,1.19,5.36,5.36,0,0,1,1.66,2.38,11.14,11.14,0,0,1,.57,3.89v13.43h-3.65Zm0-3.32V543.2H893.8q-8,0-8,4.4a2.77,2.77,0,0,0,1.15,2.43,5.55,5.55,0,0,0,3.19.8,8.25,8.25,0,0,0,1.79-.2,7.62,7.62,0,0,0,1.68-.59,8.72,8.72,0,0,0,1.51-.95A5.71,5.71,0,0,0,896.31,547.81Z" transform="translate(-826.76 -513.85)"/>
<path class="cls-1" d="M908.34,535.17a9.25,9.25,0,0,1,2.92-2.37,7.4,7.4,0,0,1,3.28-.75q7.05,0,7.05,7.6v13.62h-3.73V539.84a5.89,5.89,0,0,0-.89-3.66,3.62,3.62,0,0,0-3-1.12c-1.89,0-3.76,1.11-5.63,3.32v14.89h-3.7V532.49h3.7Z" transform="translate(-826.76 -513.85)"/>
<path class="cls-1" d="M940.12,550.77a7.53,7.53,0,0,1-6,3,8.22,8.22,0,0,1-3.58-.75,7.37,7.37,0,0,1-2.68-2.12,9.8,9.8,0,0,1-1.67-3.36,16.28,16.28,0,0,1-.57-4.48,15.11,15.11,0,0,1,.64-4.57,10.13,10.13,0,0,1,1.82-3.47,8.14,8.14,0,0,1,2.78-2.19,8,8,0,0,1,3.5-.77,8.34,8.34,0,0,1,5.71,2v-9.48h3.64v28.66h-3.64Zm0-3.47v-9.88a7.46,7.46,0,0,0-5.48-2.51,4.41,4.41,0,0,0-3.79,2q-1.43,2-1.42,6.12c0,2.63.45,4.59,1.35,5.86a4.29,4.29,0,0,0,3.71,1.92C936.53,550.83,938.4,549.65,940.12,547.3Z" transform="translate(-826.76 -513.85)"/>
<path class="cls-1" d="M977.33,553.27h-3.7V539.84a12.65,12.65,0,0,0-.17-2.21,4.17,4.17,0,0,0-.55-1.5,2.22,2.22,0,0,0-1-.82,4,4,0,0,0-1.51-.25q-2.7,0-5.25,3.32v14.89h-3.71V539.84a6.91,6.91,0,0,0-.73-3.68,2.83,2.83,0,0,0-2.53-1.1q-2.7,0-5.22,3.32v14.89h-3.7V532.49H953v2.68a7.32,7.32,0,0,1,5.78-3.12q4.57,0,5.84,3.74a19.05,19.05,0,0,1,1.95-2,7.74,7.74,0,0,1,1.61-1.12,4.9,4.9,0,0,1,1.42-.49,7.67,7.67,0,0,1,1.37-.12q6.41,0,6.4,7.6Z" transform="translate(-826.76 -513.85)"/>
<path class="cls-1" d="M995.79,551.13a10.17,10.17,0,0,1-7.28,2.63,8.88,8.88,0,0,1-2.83-.44,7.09,7.09,0,0,1-2.26-1.21,5.49,5.49,0,0,1-2-4.36q0-7.29,12.56-7.29h1.82a19.66,19.66,0,0,0-.13-2.48,3.64,3.64,0,0,0-.61-1.74,2.79,2.79,0,0,0-1.48-1,9.11,9.11,0,0,0-2.75-.32c-3.3,0-5,1.17-5.12,3.53H982q.47-6.39,9-6.39a17.23,17.23,0,0,1,3.53.33,6.42,6.42,0,0,1,2.66,1.19,5.37,5.37,0,0,1,1.67,2.38,11.4,11.4,0,0,1,.56,3.89v13.43h-3.64Zm0-3.32V543.2h-2.52q-8,0-8,4.4A2.77,2.77,0,0,0,986.4,550a5.55,5.55,0,0,0,3.19.8,8.32,8.32,0,0,0,1.79-.2,7.8,7.8,0,0,0,1.68-.59,9.12,9.12,0,0,0,1.51-.95A5.71,5.71,0,0,0,995.79,547.81Z" transform="translate(-826.76 -513.85)"/>
<path class="cls-1" d="M1014.64,535.87a6.73,6.73,0,0,0-2-.25c-1.84,0-3.45,1-4.82,3v14.7h-3.7V532.49h3.7v2.93c1.49-2.24,3.29-3.37,5.4-3.37.28,0,.55,0,.82,0a2.82,2.82,0,0,1,.6.13Z" transform="translate(-826.76 -513.85)"/>
<path class="cls-1" d="M1027.18,553.29a7.63,7.63,0,0,1-1.27.19c-.44,0-.9,0-1.39,0a7,7,0,0,1-2.72-.42,3.12,3.12,0,0,1-1.46-1.26,4.8,4.8,0,0,1-.59-2c-.07-.78-.11-1.67-.11-2.67V535.42h-2.56v-2.93h2.56v-5.12h3.67v5.12h3.38v2.93h-3.38v11.93a8.89,8.89,0,0,0,.13,1.73,2.27,2.27,0,0,0,.41,1,1.19,1.19,0,0,0,.64.46,3.12,3.12,0,0,0,.84.1c.33,0,.64,0,.94,0s.6-.05.91-.1Z" transform="translate(-826.76 -513.85)"/>
<path class="cls-1" d="M1044.22,550.77a7.53,7.53,0,0,1-6,3,8.22,8.22,0,0,1-3.58-.75,7.33,7.33,0,0,1-2.67-2.12,9.63,9.63,0,0,1-1.67-3.36,15.9,15.9,0,0,1-.58-4.48,15.11,15.11,0,0,1,.64-4.57,10.31,10.31,0,0,1,1.82-3.47,8.24,8.24,0,0,1,2.78-2.19,8,8,0,0,1,3.5-.77,8.34,8.34,0,0,1,5.71,2v-9.48h3.65v28.66h-3.65Zm0-3.47v-9.88a7.44,7.44,0,0,0-5.48-2.51,4.44,4.44,0,0,0-3.79,2q-1.42,2-1.42,6.12c0,2.63.45,4.59,1.35,5.86a4.3,4.3,0,0,0,3.71,1.92Q1041.65,550.83,1044.22,547.3Z" transform="translate(-826.76 -513.85)"/>
<path class="cls-1" d="M1062.2,553.76a11.11,11.11,0,0,1-4.12-.73,8.89,8.89,0,0,1-3.21-2.11,9.36,9.36,0,0,1-2.07-3.4,13.83,13.83,0,0,1-.72-4.62,13.51,13.51,0,0,1,.72-4.58,9.58,9.58,0,0,1,2-3.4,8.45,8.45,0,0,1,3.06-2.13,10.21,10.21,0,0,1,3.92-.74,10.62,10.62,0,0,1,4,.74,8.27,8.27,0,0,1,3.08,2.13,9.53,9.53,0,0,1,2,3.4,14,14,0,0,1,.69,4.58v.88h-15.65a11.62,11.62,0,0,0,.68,3.18,6.18,6.18,0,0,0,1.36,2.2,5.21,5.21,0,0,0,1.93,1.26,6.54,6.54,0,0,0,2.36.41,7.07,7.07,0,0,0,1.83-.24,5.42,5.42,0,0,0,1.61-.7,4.14,4.14,0,0,0,1.18-1.18,3.39,3.39,0,0,0,.52-1.66h3.78a7.34,7.34,0,0,1-1,2.89,7.14,7.14,0,0,1-2,2.1,8.69,8.69,0,0,1-2.71,1.28A11.78,11.78,0,0,1,1062.2,553.76Zm5.42-12.88a7.66,7.66,0,0,0-2-4.51,5.35,5.35,0,0,0-3.89-1.46,5.76,5.76,0,0,0-2,.35,4.72,4.72,0,0,0-1.72,1.08,6.31,6.31,0,0,0-1.28,1.86,9.91,9.91,0,0,0-.74,2.68Z" transform="translate(-826.76 -513.85)"/>
<path class="cls-1" d="M1083.08,553.76q-8.5,0-8.88-6.71h3.7q.06,3.78,5.16,3.78a5.67,5.67,0,0,0,3.52-.89,2.91,2.91,0,0,0,1.14-2.43,2.51,2.51,0,0,0-.22-1.12,2.06,2.06,0,0,0-.88-.81,9.46,9.46,0,0,0-1.84-.71c-.8-.23-1.82-.51-3.08-.84a31.62,31.62,0,0,1-3.18-.9,8,8,0,0,1-2.19-1.12,3.91,3.91,0,0,1-1.27-1.62,6.1,6.1,0,0,1-.41-2.39,5.27,5.27,0,0,1,.54-2.38,5.54,5.54,0,0,1,1.56-1.87,7.89,7.89,0,0,1,2.46-1.24,10.84,10.84,0,0,1,3.22-.46q8.11,0,8.32,5.82H1087c-.1-2-1.56-3-4.4-3a7.27,7.27,0,0,0-1.63.17,4.7,4.7,0,0,0-1.38.51,2.55,2.55,0,0,0-.94.87,2.26,2.26,0,0,0-.34,1.22,3.39,3.39,0,0,0,.13,1,1.37,1.37,0,0,0,.67.72,7,7,0,0,0,1.69.65c.76.22,1.81.49,3.16.82s2.34.61,3.26.93a8.52,8.52,0,0,1,2.32,1.17,4.4,4.4,0,0,1,1.38,1.71,6,6,0,0,1,.47,2.49,5.87,5.87,0,0,1-.58,2.57,6,6,0,0,1-1.66,2.08,8.46,8.46,0,0,1-2.63,1.41A10.74,10.74,0,0,1,1083.08,553.76Z" transform="translate(-826.76 -513.85)"/>
<path class="cls-1" d="M1099.42,528.58h-3.71v-4h3.71Zm0,24.69h-3.71V532.49h3.71Z" transform="translate(-826.76 -513.85)"/>
<path class="cls-1" d="M1121.65,551.64q0,10.05-9,10.05a13.06,13.06,0,0,1-3.51-.44,8,8,0,0,1-2.66-1.27,5.8,5.8,0,0,1-1.68-2,5.68,5.68,0,0,1-.59-2.6H1108q0,3.44,4.57,3.44a7.67,7.67,0,0,0,2.21-.3,3.66,3.66,0,0,0,1.7-1.07,5.34,5.34,0,0,0,1.1-2.13,13.24,13.24,0,0,0,.39-3.53v-1a7.52,7.52,0,0,1-6,3,8.28,8.28,0,0,1-3.58-.75,7.33,7.33,0,0,1-2.67-2.12,9.63,9.63,0,0,1-1.67-3.36,16.27,16.27,0,0,1-.58-4.48,15.1,15.1,0,0,1,.65-4.57A10,10,0,0,1,1106,535a8.14,8.14,0,0,1,2.78-2.19,8,8,0,0,1,3.5-.77,8.32,8.32,0,0,1,5.7,2v-1.6h3.65ZM1118,547.3v-9.88a7.43,7.43,0,0,0-5.47-2.51,4.41,4.41,0,0,0-3.79,2q-1.42,2-1.43,6.12c0,2.63.45,4.59,1.35,5.86a4.3,4.3,0,0,0,3.72,1.92Q1115.44,550.83,1118,547.3Z" transform="translate(-826.76 -513.85)"/>
<path class="cls-1" d="M1130,535.17a9.14,9.14,0,0,1,2.92-2.37,7.36,7.36,0,0,1,3.27-.75q7.05,0,7,7.6v13.62h-3.72V539.84a5.89,5.89,0,0,0-.9-3.66,3.6,3.6,0,0,0-3-1.12q-2.84,0-5.63,3.32v14.89h-3.7V532.49h3.7Z" transform="translate(-826.76 -513.85)"/>
<path class="cls-1" d="M838.33,561.69c-4.62,0-8.67-1.24-10.57-3.24-1.34-1.41-1-6.54-.89-7.63V548c0-4.64,6-8.46,9-10.17-4.28-2.51-9-6.22-9-10.37v-2.78c-.09-1.09-.45-6.22.89-7.63,1.9-2,6-3.24,10.57-3.24s8.67,1.24,10.57,3.24c1.33,1.41,1,6.54.89,7.63v2.78c0,3.34-3,6.79-9,10.27,6,3.48,9,6.94,9,10.27v2.78c.09,1.09.44,6.22-.89,7.63C847,560.45,843,561.69,838.33,561.69Zm0-46.73c-4.33,0-8.07,1.11-9.76,2.89-.74.78-.79,4.44-.59,6.8v2.85c0,4.1,5.8,8,9.26,9.89l.87.48-.87.49C835,539.64,828,543.54,828,548v2.86c-.2,2.35-.15,6,.59,6.79,1.69,1.78,5.43,2.89,9.76,2.89s8.06-1.11,9.76-2.89c.74-.78.79-4.44.59-6.79V548c0-3-3.21-6.4-9.27-9.78l-.86-.49.86-.48c6.06-3.39,9.27-6.78,9.27-9.79v-2.85c.2-2.36.15-6-.59-6.8C846.39,516.07,842.65,515,838.33,515Z" transform="translate(-826.76 -513.85)"/>
<path class="cls-1" d="M848.76,529.72c0,2.51-6.36,8-10.43,8s-10.47-5.54-10.47-8c0-4.2,2-2,10.47-2S848.76,525.52,848.76,529.72Z" transform="translate(-826.76 -513.85)"/>
<path class="cls-1" d="M849.23,556.41c0,2.88-5.67,4.55-10.9,4.55s-10.9-1.67-10.9-4.55,0-2.06,10.9-2.06S849.23,553.54,849.23,556.41Z" transform="translate(-826.76 -513.85)"/>
<path class="cls-1" d="M838.33,532.45c0,12.09-3.7,21.9-8.26,21.9h16.51C842,554.35,838.33,544.54,838.33,532.45Z" transform="translate(-826.76 -513.85)"/>
<polygon class="cls-2" points="12.74 19.63 15.05 20.38 13.41 18.78 14.85 18.11 13.37 17.75 15.17 15.75 12.74 17.03 12.39 15.74 11.62 16.8 9.58 14.67 10.84 17.34 9.05 17.16 10.28 18.05 8.09 18.86 10.58 19.19 9.43 20.4 11.05 19.86 11.02 22.15 12.04 20.29 13.02 20.99 12.74 19.63"/></svg>