<svg id="Слой_3" data-name="Слой 3" xmlns="http://www.w3.org/2000/svg" viewBox="0 0 347.08 45.69"><defs><style>.cls-1{fill:#1d1d1b;}</style></defs><path class="cls-1" d="M829.43,575.92q-10.47,0-10.94-8.27h4.56q.08,4.67,6.36,4.66a7.06,7.06,0,0,0,4.34-1.09,3.6,3.6,0,0,0,1.41-3,3.12,3.12,0,0,0-.28-1.37,2.52,2.52,0,0,0-1.08-1,11.84,11.84,0,0,0-2.27-.88c-1-.28-2.25-.63-3.8-1a40.09,40.09,0,0,1-3.91-1.11,9.73,9.73,0,0,1-2.7-1.38,4.87,4.87,0,0,1-1.57-2,7.63,7.63,0,0,1-.5-3,6.5,6.5,0,0,1,.66-2.93,6.67,6.67,0,0,1,1.92-2.3,9.35,9.35,0,0,1,3-1.54,13.31,13.31,0,0,1,4-.56q10,0,10.24,7.17h-4.56c-.12-2.44-1.93-3.65-5.42-3.65a9.55,9.55,0,0,0-2,.21,6,6,0,0,0-1.7.62,3.3,3.3,0,0,0-1.15,1.07,2.75,2.75,0,0,0-.42,1.52,4.19,4.19,0,0,0,.15,1.24,1.73,1.73,0,0,0,.83.89,8.77,8.77,0,0,0,2.08.8c.94.26,2.24.6,3.9,1s2.88.76,4,1.15a10.55,10.55,0,0,1,2.85,1.45,5.34,5.34,0,0,1,1.71,2.1,7.46,7.46,0,0,1,.57,3.08A7.21,7.21,0,0,1,839,571a7.5,7.5,0,0,1-2,2.56,10.28,10.28,0,0,1-3.23,1.74A13.64,13.64,0,0,1,829.43,575.92Z" transform="translate(-818.49 -540)"/><path class="cls-1" d="M861.23,572.68a12.5,12.5,0,0,1-9,3.24,10.87,10.87,0,0,1-3.49-.54,8.4,8.4,0,0,1-2.79-1.5,6.67,6.67,0,0,1-1.82-2.33,6.84,6.84,0,0,1-.66-3q0-9,15.48-9h2.24a26.94,26.94,0,0,0-.15-3.06,4.44,4.44,0,0,0-.76-2.14,3.46,3.46,0,0,0-1.83-1.25,11.54,11.54,0,0,0-3.38-.39q-6.11,0-6.31,4.35h-4.52q.57-7.87,11.06-7.87a21.3,21.3,0,0,1,4.35.41A7.93,7.93,0,0,1,863,551a6.46,6.46,0,0,1,2,2.93,13.73,13.73,0,0,1,.7,4.79v16.55h-4.49Zm0-4.1v-5.67h-3.1q-9.89,0-9.89,5.42a3.4,3.4,0,0,0,1.42,3,6.8,6.8,0,0,0,3.93,1,10.09,10.09,0,0,0,2.2-.24,9.36,9.36,0,0,0,2.08-.74,10.9,10.9,0,0,0,1.86-1.16A7.08,7.08,0,0,0,861.23,568.58Z" transform="translate(-818.49 -540)"/><path class="cls-1" d="M876.06,553a11.15,11.15,0,0,1,3.6-2.92,9.15,9.15,0,0,1,4-.92q8.68,0,8.69,9.36v16.78h-4.59V558.76a7.29,7.29,0,0,0-1.1-4.5,4.44,4.44,0,0,0-3.69-1.39c-2.33,0-4.65,1.37-6.94,4.1v18.34H871.5v-25.6h4.56Z" transform="translate(-818.49 -540)"/><path class="cls-1" d="M915.21,572.24a9.28,9.28,0,0,1-7.33,3.68,10.2,10.2,0,0,1-4.41-.92,9.14,9.14,0,0,1-3.3-2.62,12,12,0,0,1-2.06-4.14,19.92,19.92,0,0,1-.71-5.52,18.58,18.58,0,0,1,.8-5.63,12.44,12.44,0,0,1,2.24-4.28,9.75,9.75,0,0,1,7.74-3.64,10.26,10.26,0,0,1,7,2.52V540h4.5v35.31h-4.5Zm0-4.28V555.78a9.2,9.2,0,0,0-6.75-3.09,5.46,5.46,0,0,0-4.67,2.49q-1.75,2.49-1.75,7.54,0,4.86,1.66,7.23a5.32,5.32,0,0,0,4.58,2.36Q912,572.31,915.21,568Z" transform="translate(-818.49 -540)"/><path class="cls-1" d="M961.07,575.31h-4.56V558.76a15.26,15.26,0,0,0-.21-2.72,4.88,4.88,0,0,0-.68-1.84,2.64,2.64,0,0,0-1.23-1,4.88,4.88,0,0,0-1.86-.32q-3.33,0-6.47,4.1v18.34h-4.57V558.76a8.55,8.55,0,0,0-.9-4.53,3.5,3.5,0,0,0-3.12-1.36q-3.33,0-6.43,4.1v18.34h-4.56v-25.6H931V553c2.07-2.56,4.44-3.84,7.13-3.84q5.63,0,7.19,4.61a21.43,21.43,0,0,1,2.4-2.48,10,10,0,0,1,2-1.38,6.05,6.05,0,0,1,1.74-.61,10.51,10.51,0,0,1,1.69-.14q7.89,0,7.89,9.36Z" transform="translate(-818.49 -540)"/><path class="cls-1" d="M983.81,572.68a12.5,12.5,0,0,1-9,3.24,10.87,10.87,0,0,1-3.49-.54,8.35,8.35,0,0,1-2.78-1.5,6.7,6.7,0,0,1-1.83-2.33,7,7,0,0,1-.65-3q0-9,15.48-9h2.23a26.94,26.94,0,0,0-.15-3.06,4.54,4.54,0,0,0-.75-2.14,3.54,3.54,0,0,0-1.83-1.25,11.66,11.66,0,0,0-3.39-.39c-4.06,0-6.17,1.45-6.31,4.35h-4.51q.55-7.87,11-7.87a21.33,21.33,0,0,1,4.36.41,7.88,7.88,0,0,1,3.28,1.46,6.55,6.55,0,0,1,2.05,2.93,14,14,0,0,1,.7,4.79v16.55h-4.5Zm0-4.1v-5.67h-3.09q-9.9,0-9.9,5.42a3.42,3.42,0,0,0,1.42,3,6.81,6.81,0,0,0,3.94,1,10.16,10.16,0,0,0,2.2-.24,9.46,9.46,0,0,0,2.07-.74,10.52,10.52,0,0,0,1.86-1.16A6.87,6.87,0,0,0,983.81,568.58Z" transform="translate(-818.49 -540)"/><path class="cls-1" d="M1007.05,553.87a8.3,8.3,0,0,0-2.47-.3q-3.41,0-5.94,3.63v18.11h-4.56v-25.6h4.56v3.6q2.75-4.14,6.66-4.14c.34,0,.68,0,1,0a3.6,3.6,0,0,1,.74.15Z" transform="translate(-818.49 -540)"/><path class="cls-1" d="M1022.5,575.34a10.07,10.07,0,0,1-1.57.24q-.79.06-1.71.06a8.52,8.52,0,0,1-3.35-.53,3.72,3.72,0,0,1-1.79-1.54,5.83,5.83,0,0,1-.74-2.47c-.08-1-.13-2.06-.13-3.28V553.31h-3.16v-3.6h3.16V543.4h4.52v6.31h4.17v3.6h-4.17V568a11.13,11.13,0,0,0,.16,2.13,3.06,3.06,0,0,0,.5,1.23,1.57,1.57,0,0,0,.79.56,4.11,4.11,0,0,0,1,.13c.4,0,.79,0,1.15,0a9.11,9.11,0,0,0,1.13-.13Z" transform="translate(-818.49 -540)"/><path class="cls-1" d="M1043.5,572.24a9.3,9.3,0,0,1-7.33,3.68,10.28,10.28,0,0,1-4.42-.92,9.2,9.2,0,0,1-3.29-2.62,11.82,11.82,0,0,1-2.06-4.14,19.92,19.92,0,0,1-.71-5.52,18.59,18.59,0,0,1,.79-5.63,12.63,12.63,0,0,1,2.25-4.28,10.09,10.09,0,0,1,3.42-2.7,10,10,0,0,1,4.32-.94,10.26,10.26,0,0,1,7,2.52V540H1048v35.31h-4.49Zm0-4.28V555.78a9.2,9.2,0,0,0-6.75-3.09,5.45,5.45,0,0,0-4.67,2.49q-1.75,2.49-1.76,7.54,0,4.86,1.67,7.23a5.3,5.3,0,0,0,4.57,2.36Q1040.34,572.31,1043.5,568Z" transform="translate(-818.49 -540)"/><path class="cls-1" d="M1065.66,575.92a13.85,13.85,0,0,1-5.09-.9,11,11,0,0,1-3.94-2.59,11.35,11.35,0,0,1-2.55-4.21,18.38,18.38,0,0,1,0-11.33,12,12,0,0,1,2.45-4.19,10.5,10.5,0,0,1,3.77-2.62,12.48,12.48,0,0,1,4.83-.91,13,13,0,0,1,5,.91,10.28,10.28,0,0,1,3.8,2.62,11.79,11.79,0,0,1,2.41,4.19,17.51,17.51,0,0,1,.84,5.64v1.1h-19.27a13.81,13.81,0,0,0,.83,3.91,7.84,7.84,0,0,0,1.67,2.71,6.35,6.35,0,0,0,2.39,1.56,8.39,8.39,0,0,0,2.91.5,9,9,0,0,0,2.25-.29,7,7,0,0,0,2-.87,5.17,5.17,0,0,0,1.45-1.46,4.13,4.13,0,0,0,.64-2h4.66a9.22,9.22,0,0,1-1.23,3.57,8.85,8.85,0,0,1-2.41,2.58,10.51,10.51,0,0,1-3.34,1.58A14.39,14.39,0,0,1,1065.66,575.92Zm6.68-15.88a9.43,9.43,0,0,0-2.42-5.55,6.61,6.61,0,0,0-4.8-1.8,7.24,7.24,0,0,0-2.51.43,5.74,5.74,0,0,0-2.12,1.34,7.53,7.53,0,0,0-1.57,2.29A12,12,0,0,0,1058,560Z" transform="translate(-818.49 -540)"/><path class="cls-1" d="M1091.38,575.92q-10.47,0-10.94-8.27H1085q.07,4.67,6.36,4.66a7.06,7.06,0,0,0,4.34-1.09,3.6,3.6,0,0,0,1.41-3,3.12,3.12,0,0,0-.28-1.37,2.52,2.52,0,0,0-1.08-1,11.84,11.84,0,0,0-2.27-.88c-1-.28-2.25-.63-3.8-1a40.09,40.09,0,0,1-3.91-1.11,9.88,9.88,0,0,1-2.7-1.38,4.87,4.87,0,0,1-1.57-2,7.63,7.63,0,0,1-.5-3,6.5,6.5,0,0,1,.66-2.93,6.89,6.89,0,0,1,1.92-2.3,9.35,9.35,0,0,1,3-1.54,13.31,13.31,0,0,1,4-.56q10,0,10.24,7.17h-4.56c-.12-2.44-1.93-3.65-5.42-3.65a9.55,9.55,0,0,0-2,.21,6,6,0,0,0-1.7.62,3.3,3.3,0,0,0-1.15,1.07,2.75,2.75,0,0,0-.42,1.52,4.19,4.19,0,0,0,.15,1.24,1.73,1.73,0,0,0,.83.89,8.77,8.77,0,0,0,2.08.8c.94.26,2.24.6,3.9,1s2.88.76,4,1.15a10.55,10.55,0,0,1,2.85,1.45,5.34,5.34,0,0,1,1.71,2.1,7.46,7.46,0,0,1,.57,3.08A7.21,7.21,0,0,1,1101,571a7.5,7.5,0,0,1-2,2.56,10.28,10.28,0,0,1-3.23,1.74A13.64,13.64,0,0,1,1091.38,575.92Z" transform="translate(-818.49 -540)"/><path class="cls-1" d="M1111.52,544.89H1107V540h4.56Zm0,30.42H1107v-25.6h4.56Z" transform="translate(-818.49 -540)"/><path class="cls-1" d="M1138.92,573.31q0,12.39-11.13,12.38a16.09,16.09,0,0,1-4.33-.54,9.94,9.94,0,0,1-3.27-1.56,7.14,7.14,0,0,1-2.07-2.45,6.89,6.89,0,0,1-.74-3.2h4.75q0,4.24,5.64,4.24a9.32,9.32,0,0,0,2.72-.37,4.56,4.56,0,0,0,2.09-1.32,6.38,6.38,0,0,0,1.35-2.63,15.77,15.77,0,0,0,.49-4.34v-1.28a9.28,9.28,0,0,1-7.33,3.68,10.23,10.23,0,0,1-4.41-.92,9.23,9.23,0,0,1-3.3-2.62,11.81,11.81,0,0,1-2.05-4.14,19.55,19.55,0,0,1-.71-5.52,18.59,18.59,0,0,1,.79-5.63,12.44,12.44,0,0,1,2.24-4.28,9.75,9.75,0,0,1,7.74-3.64,10.26,10.26,0,0,1,7,2.52v-2h4.5Zm-4.5-5.35V555.78a9.2,9.2,0,0,0-6.75-3.09,5.46,5.46,0,0,0-4.67,2.49q-1.76,2.49-1.75,7.54,0,4.86,1.66,7.23a5.32,5.32,0,0,0,4.58,2.36Q1131.26,572.31,1134.42,568Z" transform="translate(-818.49 -540)"/><path class="cls-1" d="M1149.25,553a11.15,11.15,0,0,1,3.6-2.92,9.17,9.17,0,0,1,4-.92q8.67,0,8.68,9.36v16.78H1161V558.76a7.22,7.22,0,0,0-1.1-4.5,4.44,4.44,0,0,0-3.69-1.39q-3.5,0-6.94,4.1v18.34h-4.56v-25.6h4.56Z" transform="translate(-818.49 -540)"/></svg>